solid OpenSCAD_Model
  facet normal -1 0 0
    outer loop
      vertex -0.2 0 3.8
      vertex -0.2 4 3.8
      vertex -0.2 0 0.22
    endloop
  endfacet
  facet normal -1 0 0
    outer loop
      vertex -0.2 0 0.22
      vertex -0.2 4 3.8
      vertex -0.2 4 0.22
    endloop
  endfacet
  facet normal 0 0 1
    outer loop
      vertex -0.2 0 3.8
      vertex 0.18 0 3.8
      vertex 0.18 4 3.8
    endloop
  endfacet
  facet normal 0 0 1
    outer loop
      vertex -0.2 4 3.8
      vertex -0.2 0 3.8
      vertex 0.18 4 3.8
    endloop
  endfacet
  facet normal 0 -1 0
    outer loop
      vertex -0.2 0 0.22
      vertex 0.18 0 0.22
      vertex 0.18 0 3.8
    endloop
  endfacet
  facet normal 0 -1 0
    outer loop
      vertex -0.2 0 3.8
      vertex -0.2 0 0.22
      vertex 0.18 0 3.8
    endloop
  endfacet
  facet normal 0 0 -1
    outer loop
      vertex -0.2 4 0.22
      vertex 0.18 4 0.22
      vertex -0.2 0 0.22
    endloop
  endfacet
  facet normal 0 0 -1
    outer loop
      vertex -0.2 0 0.22
      vertex 0.18 4 0.22
      vertex 0.18 0 0.22
    endloop
  endfacet
  facet normal 0 1 0
    outer loop
      vertex -0.2 4 3.8
      vertex 0.18 4 3.8
      vertex -0.2 4 0.22
    endloop
  endfacet
  facet normal 0 1 0
    outer loop
      vertex -0.2 4 0.22
      vertex 0.18 4 3.8
      vertex 0.18 4 0.22
    endloop
  endfacet
  facet normal 1 0 0
    outer loop
      vertex 0.18 0 0.22
      vertex 0.18 4 0.22
      vertex 0.18 4 3.8
    endloop
  endfacet
  facet normal 1 0 0
    outer loop
      vertex 0.18 0 3.8
      vertex 0.18 0 0.22
      vertex 0.18 4 3.8
    endloop
  endfacet
endsolid OpenSCAD_Model
